<?xml version="1.0" encoding="utf-8"?>
<!-- Generator: Adobe Illustrator 21.0.0, SVG Export Plug-In . SVG Version: 6.00 Build 0)  -->
<svg version="1.1" id="Layer_1" xmlns="http://www.w3.org/2000/svg" xmlns:xlink="http://www.w3.org/1999/xlink" x="0px" y="0px"
	 viewBox="0 0 32 32" style="enable-background:new 0 0 32 32;" xml:space="preserve">
<style type="text/css">
	.st0{fill:#FFFF00;stroke:#000000;stroke-miterlimit:10;}
</style>
<path class="st0" d="M16,0.6C7.5,0.6,0.6,7.5,0.6,16S7.5,31.4,16,31.4S31.4,24.5,31.4,16S24.5,0.6,16,0.6z M21.8,8.3
	c1.1,0,1.9,0.9,1.9,1.9s-0.9,1.9-1.9,1.9s-1.9-0.9-1.9-1.9S20.7,8.3,21.8,8.3z M10.2,8.3c1.1,0,1.9,0.9,1.9,1.9s-0.9,1.9-1.9,1.9
	s-1.9-0.9-1.9-1.9S9.2,8.3,10.2,8.3z M21.8,24.1c-1.2-2-3.3-3.3-5.8-3.3s-4.6,1.3-5.8,3.3l-2.5-1.5c1.7-2.8,4.7-4.7,8.2-4.7
	s6.6,1.9,8.2,4.7L21.8,24.1z"/>
</svg>
