<?xml version="1.0" encoding="utf-8"?>
<!-- Generator: Adobe Illustrator 21.0.0, SVG Export Plug-In . SVG Version: 6.00 Build 0)  -->
<svg version="1.1" id="Layer_1" xmlns="http://www.w3.org/2000/svg" xmlns:xlink="http://www.w3.org/1999/xlink" x="0px" y="0px"
	 viewBox="0 0 32 32" style="enable-background:new 0 0 32 32;" xml:space="preserve">
<style type="text/css">
	.st0{fill:#FFFF00;stroke:#000000;stroke-miterlimit:10;}
</style>
<path class="st0" d="M16,0.9C7.7,0.9,0.9,7.6,0.9,16S7.7,31.1,16,31.1S31.1,24.4,31.1,16S24.3,0.9,16,0.9z M21.6,8.4
	c1,0,1.9,0.8,1.9,1.9s-0.8,1.9-1.9,1.9s-1.9-0.8-1.9-1.9S20.6,8.4,21.6,8.4z M10.4,8.4c1,0,1.9,0.8,1.9,1.9s-0.8,1.9-1.9,1.9
	s-1.9-0.8-1.9-1.9S9.3,8.4,10.4,8.4z M16,25.5c-3.4,0-6.4-1.8-8.1-4.6l2.4-1.5c1.2,1.9,3.3,3.2,5.7,3.2s4.5-1.3,5.7-3.2l2.4,1.5
	C22.4,23.6,19.4,25.5,16,25.5z"/>
</svg>
