<?xml version="1.0" encoding="utf-8"?>
<!-- Generator: Adobe Illustrator 21.0.0, SVG Export Plug-In . SVG Version: 6.00 Build 0)  -->
<svg version="1.1" id="Layer_1" xmlns="http://www.w3.org/2000/svg" xmlns:xlink="http://www.w3.org/1999/xlink" x="0px" y="0px"
	 viewBox="0 0 32 32" style="enable-background:new 0 0 32 32;" xml:space="preserve">
<style type="text/css">
	.st0{fill:#FFFF00;stroke:#020202;stroke-miterlimit:10;}
</style>
<path class="st0" d="M16,0.8C7.6,0.8,0.8,7.6,0.8,16S7.6,31.2,16,31.2S31.2,24.4,31.2,16S24.4,0.8,16,0.8z M19.8,23.6h-7.6v-1.9h7.6
	V23.6z M21.7,8.4c1,0,1.9,0.9,1.9,1.9s-0.9,1.9-1.9,1.9s-1.9-0.9-1.9-1.9S20.7,8.4,21.7,8.4z M10.3,8.4c1,0,1.9,0.9,1.9,1.9
	s-0.9,1.9-1.9,1.9s-1.9-0.9-1.9-1.9S9.2,8.4,10.3,8.4z"/>
</svg>
